<svg version="1.1" id="Layer_1" xmlns="http://www.w3.org/2000/svg" xmlns:xlink="http://www.w3.org/1999/xlink" x="0px" y="0px"
	 width="100%" viewBox="0 0 100 100" enable-background="new 0 0 100 100" xml:space="preserve">
<path fill="#FDFDFD" opacity="1.000000" stroke="none" 
	d="
M55.000000,101.000000 
	C37.666668,101.000000 20.832872,100.938591 4.000517,101.066711 
	C1.498083,101.085762 0.927402,100.500175 0.935280,97.999802 
	C1.034011,66.666786 1.034007,35.333248 0.935287,4.000231 
	C0.927410,1.499949 1.499759,0.927397 4.000176,0.935277 
	C35.333191,1.034015 66.666733,1.034005 97.999748,0.935291 
	C100.499985,0.927414 101.072601,1.499695 101.064720,4.000158 
	C100.965973,35.333176 100.965988,66.666718 101.064697,97.999733 
	C101.072578,100.499931 100.503014,101.091957 97.999397,101.067345 
	C83.834084,100.928070 69.666687,101.000000 55.000000,101.000000 
z"/>
<path fill="#F40505" opacity="1.000000" stroke="none" 
	d="
M32.187675,85.232513 
	C29.937559,87.612183 27.429543,88.703392 24.226730,88.712456 
	C21.503242,87.649872 18.875929,88.398277 16.165314,87.252853 
	C17.887972,82.001297 18.531433,76.774910 17.749233,71.016098 
	C17.797750,70.190720 17.859079,69.727539 18.019176,68.939178 
	C18.465910,67.383705 18.861349,66.159889 18.555504,64.528748 
	C18.495085,63.995060 18.482050,63.779545 18.501093,63.240490 
	C18.684761,62.281994 18.926674,61.677090 19.252344,60.755119 
	C19.850750,59.233879 19.946936,57.829121 21.391579,56.834896 
	C22.382658,56.956718 22.807741,57.453362 23.358206,58.268124 
	C23.810698,59.067764 24.041706,59.622364 24.308161,60.420349 
	C24.442364,61.093773 24.502802,61.556400 25.210381,60.723679 
	C25.800257,60.465706 26.169027,60.430809 26.784153,60.570778 
	C26.737982,60.057373 27.931862,60.874107 27.283701,61.030094 
	C26.635540,61.186077 27.109999,62.061676 27.311104,61.428173 
	C27.616739,60.465393 26.569126,59.823978 26.730282,58.559906 
	C27.498245,57.317921 28.386917,57.216587 29.664993,57.831207 
	C30.997118,60.439926 32.055019,62.795967 33.149025,65.515198 
	C38.144001,72.441856 34.989384,78.647926 32.187675,85.232513 
z"/>
<path fill="#F69CA8" opacity="1.000000" stroke="none" 
	d="
M18.736528,69.722595 
	C19.009058,73.542824 19.192776,77.074043 19.153271,80.602760 
	C19.128843,82.784637 18.541380,84.854286 16.322384,86.437012 
	C16.017300,86.952690 15.888522,87.176918 15.422272,87.209961 
	C14.783072,86.628372 14.557824,86.122131 14.168180,85.864929 
	C8.035583,81.816505 6.542276,77.118019 9.862540,70.398064 
	C11.045710,68.003426 10.252760,64.575394 13.805706,63.166786 
	C15.130802,62.956177 15.375717,63.578384 15.466419,64.664627 
	C14.751441,66.260895 14.115540,67.528625 14.311534,69.024345 
	C14.398149,69.685333 14.748271,70.060257 14.565543,69.423187 
	C14.546239,69.355888 15.011695,69.045639 15.282312,68.455704 
	C15.590984,68.018959 15.741940,67.859123 16.202892,67.568298 
	C16.739592,67.425598 16.966293,67.413895 17.520760,67.503029 
	C18.514839,68.047150 18.465309,68.766373 18.736528,69.722595 
z"/>
<path fill="#F2F2F2" opacity="1.000000" stroke="none" 
	d="
M69.156349,86.152939 
	C66.412834,84.942604 64.988235,83.143211 64.699432,80.579903 
	C65.898216,78.936012 67.379471,82.642273 68.717033,79.967178 
	C70.312714,76.775887 71.720306,73.785728 70.445961,70.146324 
	C69.403076,67.167908 68.658867,64.077682 67.495872,61.150814 
	C66.539436,58.743801 67.999245,57.463997 69.603050,55.554649 
	C71.161087,62.070271 74.363289,67.733307 75.038795,74.546661 
	C74.639351,75.324516 74.478783,75.838745 74.413589,76.681976 
	C74.147758,77.258591 73.907501,77.538490 73.919434,77.793091 
	C74.344574,77.932884 74.485306,78.069969 74.763885,78.475128 
	C75.021065,79.550987 75.478958,80.331627 74.845505,81.389061 
	C71.959770,82.166725 71.949409,85.597458 69.156349,86.152939 
z"/>
<path fill="#AAAAAA" opacity="1.000000" stroke="none" 
	d="
M54.645187,82.311600 
	C54.558758,80.239189 54.314495,78.496910 54.001186,76.381012 
	C51.687656,73.273720 53.798695,70.359390 53.595535,67.155388 
	C53.660961,66.013420 53.722282,65.258553 53.836548,64.142097 
	C53.938938,63.547596 53.995659,63.315262 54.403465,62.490013 
	C54.961906,61.817108 55.169262,61.737114 55.697842,61.715988 
	C56.669823,62.319805 56.937927,63.138653 57.661671,63.995449 
	C58.016102,64.350304 58.163063,64.489586 58.529861,64.843506 
	C59.329384,65.672722 59.940811,66.261749 60.435402,67.345947 
	C60.752285,68.323051 60.946999,68.986267 61.137764,70.025208 
	C61.258026,71.378128 61.151932,72.348228 60.553543,73.585785 
	C60.202595,74.763618 57.092873,73.697662 59.015125,76.149071 
	C59.556320,76.839249 59.085365,78.650261 58.685989,80.260147 
	C58.056915,81.691986 57.341236,82.654373 56.418446,83.904137 
	C55.922058,84.215385 55.685326,84.271461 55.112667,84.183823 
	C54.533131,83.604446 54.443573,83.136887 54.645187,82.311600 
z"/>
<path fill="#A6A6A6" opacity="1.000000" stroke="none" 
	d="
M79.438522,50.019260 
	C75.850426,52.192352 71.421555,50.654362 67.991478,53.449520 
	C66.743835,54.466221 65.872299,52.354889 64.876022,51.700779 
	C63.519829,50.810349 64.342056,49.852020 65.351799,48.971474 
	C65.893005,48.499519 66.032158,47.566532 66.338379,46.462826 
	C66.145332,45.487072 66.199478,44.920361 66.758835,44.187351 
	C69.823349,46.018448 72.615257,48.234600 76.871216,47.152031 
	C78.083023,47.980350 79.198891,48.437492 79.438522,50.019260 
z"/>
<path fill="#1F0F0F" opacity="1.000000" stroke="none" 
	d="
M32.361633,85.426369 
	C33.486309,82.458046 31.066631,78.692482 34.675640,75.488304 
	C36.654266,73.731628 33.598061,69.721313 33.148857,66.272987 
	C37.554329,69.336212 38.446709,75.231781 35.395191,81.189064 
	C34.656998,82.630196 33.604286,83.910225 32.361633,85.426369 
z"/>
<path fill="#C0C0C0" opacity="1.000000" stroke="none" 
	d="
M69.017883,86.335106 
	C71.478867,85.260384 70.026680,80.445015 74.218781,80.982506 
	C74.876373,80.827682 75.214569,80.663605 75.815331,80.998474 
	C75.697784,82.454071 74.734932,83.193779 75.003326,84.711517 
	C75.248642,85.240562 75.477898,85.463005 75.892624,85.832771 
	C76.091728,85.966064 76.015488,85.985497 76.034378,85.950989 
	C77.250168,88.404083 74.085381,89.867821 74.413841,92.493423 
	C69.616104,93.194412 70.725586,88.832451 69.017883,86.335106 
z"/>
<path fill="#2E0C0D" opacity="1.000000" stroke="none" 
	d="
M27.178539,60.812805 
	C26.531282,61.042648 26.119886,60.922230 25.151081,60.616333 
	C24.241596,59.694214 24.369732,58.847469 23.903698,57.846970 
	C23.436012,57.074726 23.159567,56.537281 22.730536,55.726791 
	C22.505516,55.252998 22.424328,55.057060 22.256630,54.550781 
	C22.093767,53.806149 22.057079,53.368282 22.071407,52.586826 
	C22.263296,51.067955 22.719683,49.998348 23.560955,48.700928 
	C24.558924,47.703541 25.431719,47.296230 26.848228,47.676228 
	C27.486830,48.283184 27.631769,48.761585 27.479465,49.642040 
	C26.656303,53.028881 29.517866,54.757164 29.989925,57.714996 
	C29.092064,58.152260 28.244907,58.220638 27.239021,58.570549 
	C27.391985,59.347343 27.503328,59.884171 27.178539,60.812805 
z"/>
<path fill="#3C0A08" opacity="1.000000" stroke="none" 
	d="
M22.831034,34.208729 
	C22.666994,33.534664 22.771896,33.240898 23.253254,32.885143 
	C23.778366,32.725410 24.092751,32.686852 24.859367,32.793961 
	C25.769691,33.516647 26.227785,34.093666 26.635384,34.952934 
	C26.531494,35.481350 26.478100,35.727505 26.595932,36.311054 
	C27.776510,39.290680 26.432291,41.342262 24.418659,43.878220 
	C24.539965,43.788120 25.671921,43.625195 25.120548,43.250450 
	C24.888968,43.093052 24.982275,42.999805 25.236330,42.780533 
	C26.062807,42.067204 26.996475,42.009293 28.346138,42.364857 
	C29.440136,43.104286 29.308603,43.819786 28.791016,44.883606 
	C28.078178,45.785564 27.479052,46.258472 26.536697,46.912472 
	C25.027407,47.639660 23.835798,48.124104 22.164593,47.477486 
	C20.855267,46.243126 21.079802,44.828548 20.757793,43.230545 
	C21.369589,40.646843 24.449575,39.766754 23.891109,36.646576 
	C23.593321,35.703648 23.170273,35.168121 22.831034,34.208729 
z"/>
<path fill="#8A8A8A" opacity="1.000000" stroke="none" 
	d="
M55.188465,62.138172 
	C54.960213,62.511349 54.994694,62.464199 55.020828,62.477242 
	C54.895000,62.912697 54.631660,63.242695 53.913025,63.483837 
	C52.604836,63.277603 52.267693,62.508636 51.941872,61.357880 
	C51.746910,60.884071 51.641602,60.707031 51.333138,60.297176 
	C51.074963,57.457756 51.019932,54.851151 50.934906,51.817245 
	C50.797302,51.105915 50.689690,50.821888 50.850174,50.169498 
	C51.902935,50.133411 52.687599,50.465687 53.785767,50.879005 
	C54.451199,51.424419 54.761623,51.915073 55.165047,52.847683 
	C55.768661,56.091431 57.174385,58.906357 55.188465,62.138172 
z"/>
<path fill="#DDDDDB" opacity="1.000000" stroke="none" 
	d="
M30.760702,42.553528 
	C31.791040,42.051605 32.697716,42.308002 32.960110,42.005516 
	C34.334358,40.421288 36.142605,40.593346 37.484943,41.368225 
	C40.068771,42.859753 35.505013,42.971146 36.663445,44.513264 
	C37.008984,44.973248 36.880901,45.789009 36.996700,46.787052 
	C37.153008,47.973068 36.765858,48.395905 35.602631,48.473370 
	C34.571850,48.471424 33.897209,48.396465 33.002861,47.847393 
	C32.016041,47.072674 31.431479,46.381638 30.731325,45.346039 
	C30.284224,44.408108 30.204580,43.742897 30.760702,42.553528 
z"/>
<path fill="#4B4B4B" opacity="1.000000" stroke="none" 
	d="
M60.416382,70.205498 
	C59.942986,69.296822 59.933632,68.584908 59.954735,67.518234 
	C59.087528,66.329407 59.102951,65.103851 58.515587,63.758675 
	C58.292114,63.222271 58.213821,63.001686 58.037704,62.441418 
	C57.429447,59.277802 56.399914,56.566929 56.138290,53.328743 
	C56.246616,52.729729 56.325512,52.497177 56.639328,51.980911 
	C61.598278,56.051979 60.816891,62.319969 62.455116,68.038528 
	C62.596523,69.525543 62.114220,70.249809 60.416382,70.205498 
z"/>
<path fill="#F7F7F7" opacity="1.000000" stroke="none" 
	d="
M51.873917,60.397888 
	C53.072807,60.595829 52.852142,61.552303 53.025066,62.724747 
	C54.059963,63.614914 54.511654,64.494148 54.814049,65.823097 
	C54.685898,69.100479 54.369957,72.133064 53.993073,75.586533 
	C53.485916,75.999931 53.039700,75.992470 52.258644,75.975464 
	C51.071621,70.919701 51.663177,65.841263 51.873917,60.397888 
z"/>
<path fill="#2A2A2A" opacity="1.000000" stroke="none" 
	d="
M79.755318,50.307766 
	C78.709770,49.522858 77.999603,48.689922 77.265358,47.564156 
	C79.005394,47.073784 80.775688,46.688786 82.531387,46.746677 
	C83.643478,46.783348 85.516922,46.456005 85.706505,47.903797 
	C85.883247,49.253563 84.454254,50.003540 82.995506,50.075577 
	C82.026566,50.123428 81.058929,50.197437 79.755318,50.307766 
z"/>
<path fill="#160C0C" opacity="1.000000" stroke="none" 
	d="
M14.637457,65.232056 
	C14.755575,64.323868 14.721045,63.796692 14.429493,63.203003 
	C14.161541,61.738152 15.022899,60.721516 15.889434,59.349976 
	C17.619057,57.829472 18.358471,58.997490 19.244247,60.462189 
	C19.450470,61.338470 19.474245,61.850761 19.279060,62.715744 
	C19.119892,63.065662 18.936682,63.397308 18.927889,63.908630 
	C18.894186,65.568748 18.427929,66.510132 17.330025,67.478783 
	C17.081116,67.685921 16.656628,67.930557 16.419043,67.990234 
	C14.935549,67.711327 14.415043,66.867683 14.637457,65.232056 
z"/>
<path fill="#383838" opacity="1.000000" stroke="none" 
	d="
M74.535980,92.909447 
	C72.763130,90.235291 73.105270,88.134171 75.926987,86.270996 
	C78.896805,88.636391 75.456413,91.460976 76.191536,94.216003 
	C75.735947,93.818245 75.280350,93.420479 74.535980,92.909447 
z"/>
<path fill="#551E1E" opacity="1.000000" stroke="none" 
	d="
M19.193459,60.793877 
	C18.190170,60.396927 17.441216,59.741741 16.381622,59.079399 
	C16.264389,56.410248 17.531309,54.119011 18.748741,51.467056 
	C19.133678,50.347057 19.704111,49.900421 20.887249,49.880859 
	C21.967167,50.877861 21.951658,51.900288 21.857227,53.302078 
	C21.506027,55.133610 20.741743,56.406479 20.089828,58.108368 
	C19.961105,59.191139 19.853352,59.904781 19.193459,60.793877 
z"/>
<path fill="#E0D9D9" opacity="1.000000" stroke="none" 
	d="
M29.201672,42.889076 
	C27.209843,41.746075 25.746317,43.729988 23.833372,43.635002 
	C24.418554,41.454716 26.973616,40.233521 26.115566,37.416924 
	C26.313074,36.652752 26.587574,36.369762 27.240227,36.072311 
	C28.498220,36.083683 28.899267,36.724907 29.042831,37.928177 
	C29.946533,39.021324 30.067122,40.043922 29.904192,41.523224 
	C29.723753,42.152004 29.612562,42.391285 29.201672,42.889076 
z"/>
<path fill="#747474" opacity="1.000000" stroke="none" 
	d="
M51.007973,49.518169 
	C51.084637,50.066097 51.051006,50.331059 50.961143,50.992981 
	C48.229172,50.106934 45.408119,51.561707 42.349213,50.760498 
	C41.798435,49.853039 41.115700,49.480824 40.772202,48.506596 
	C41.046356,47.778763 41.411594,47.518700 42.210541,47.402618 
	C44.197208,48.259712 45.950222,47.899910 48.319172,47.933315 
	C49.154484,49.151390 50.443558,48.525314 51.007973,49.518169 
z"/>
<path fill="#555555" opacity="1.000000" stroke="none" 
	d="
M59.870132,70.399612 
	C60.640633,69.674980 61.328930,69.341232 62.237640,68.668198 
	C62.980373,70.023598 63.883427,71.705246 63.941975,73.415802 
	C64.048187,76.518951 62.549416,74.189720 61.358482,73.956200 
	C60.838936,74.168297 60.633110,74.313026 60.135780,74.218018 
	C59.825493,72.915695 59.806713,71.853096 59.870132,70.399612 
z"/>
<path fill="#1E1E1E" opacity="1.000000" stroke="none" 
	d="
M41.504459,47.716568 
	C41.501186,48.703568 41.593693,49.341125 41.844055,50.272701 
	C39.934059,50.077545 37.866203,49.588371 35.413574,49.020599 
	C34.880508,48.779964 34.732227,48.617935 34.861034,48.277676 
	C35.651756,47.918278 36.165398,47.737110 36.851311,47.344143 
	C38.099293,46.751175 39.175003,46.370003 40.592667,46.063332 
	C41.315075,46.461731 41.529030,46.875782 41.504459,47.716568 
z"/>
<path fill="#BF3234" opacity="1.000000" stroke="none" 
	d="
M30.653553,36.959049 
	C31.532938,35.146538 32.770458,34.024803 34.653809,33.536041 
	C35.783428,34.691925 36.170879,35.853806 35.555523,37.644524 
	C34.735218,38.306324 34.130470,38.538349 33.209091,38.686092 
	C31.984137,38.457783 31.262440,38.003948 30.653553,36.959049 
z"/>
<path fill="#4D4D4D" opacity="1.000000" stroke="none" 
	d="
M51.905167,60.039368 
	C52.127354,65.026848 52.091736,70.035698 51.989960,75.505234 
	C49.587273,71.090576 51.518814,65.970291 51.097092,60.525650 
	C51.302448,60.063152 51.474903,60.061947 51.905167,60.039368 
z"/>
<path fill="#A0777C" opacity="1.000000" stroke="none" 
	d="
M30.325741,36.887276 
	C31.520622,36.860836 32.570145,36.860451 32.912056,38.309959 
	C32.331699,39.534035 31.770933,40.466263 31.195892,41.725777 
	C31.181614,42.053059 31.090652,41.884567 30.995453,41.894691 
	C30.557642,42.302948 30.124931,42.476685 29.306217,42.198242 
	C29.035475,40.978031 29.060642,39.985607 29.075365,38.615318 
	C29.392099,37.871216 29.719280,37.504978 30.325741,36.887276 
z"/>
<path fill="#747474" opacity="1.000000" stroke="none" 
	d="
M59.557991,73.998398 
	C60.043953,73.996605 60.243629,74.014915 60.744034,74.028397 
	C59.715157,75.965508 59.448532,78.101089 59.722820,80.694824 
	C59.302837,81.192375 59.049488,81.360664 58.411652,81.283386 
	C58.708618,78.745308 56.635857,75.964485 59.557991,73.998398 
z"/>
<path fill="#1E1E1E" opacity="1.000000" stroke="none" 
	d="
M15.159388,87.398491 
	C15.267196,86.991348 15.449592,86.963943 15.889033,86.832497 
	C18.545582,87.335915 21.302778,85.714951 23.680466,88.188919 
	C20.938519,89.247322 18.050543,88.956078 15.159388,87.398491 
z"/>
<path fill="#6E5C46" opacity="1.000000" stroke="none" 
	d="
M20.547913,43.077591 
	C21.534422,43.916359 22.138834,45.011753 21.965782,46.733788 
	C22.116411,47.587589 22.027090,48.020149 21.454094,48.638924 
	C20.095980,49.265572 19.094862,50.088268 17.541737,49.297089 
	C17.693670,46.862564 21.080210,46.176022 20.547913,43.077591 
z"/>
<path fill="#988A19" opacity="1.000000" stroke="none" 
	d="
M34.811104,47.959747 
	C35.138119,48.099442 35.028107,48.513531 35.028450,48.727764 
	C32.842453,50.048286 30.407373,49.649551 27.723282,50.041382 
	C27.236708,49.612198 27.137083,49.227077 26.937983,48.558514 
	C28.145935,46.032207 30.347416,46.861721 32.567265,46.576035 
	C33.411236,46.909721 33.947662,47.364883 34.811104,47.959747 
z"/>
<path fill="#686868" opacity="1.000000" stroke="none" 
	d="
M41.696587,48.050858 
	C41.310863,47.636421 41.213043,47.206833 41.024925,46.457535 
	C43.714024,47.219948 46.380825,46.872215 49.300476,45.301197 
	C49.770390,45.257507 49.907177,45.417870 50.122398,45.884514 
	C49.776688,46.599747 49.352543,47.008701 48.944626,47.721188 
	C48.960857,48.024719 49.013332,48.009941 49.007927,47.983070 
	C47.390526,48.972763 45.620174,48.311680 43.531631,48.247765 
	C42.754395,48.051865 42.369446,48.043785 41.696587,48.050858 
z"/>
<path fill="#1C0808" opacity="1.000000" stroke="none" 
	d="
M35.737679,38.197472 
	C35.189686,36.900162 35.039402,35.726032 34.880970,34.107113 
	C36.102871,34.035847 38.027714,33.321484 38.128876,35.502060 
	C38.190723,36.835205 38.526348,38.613319 35.737679,38.197472 
z"/>
<path fill="#F2F2F2" opacity="1.000000" stroke="none" 
	d="
M57.855740,41.411831 
	C59.312160,41.112034 60.637501,40.469234 61.688187,42.299095 
	C60.054001,42.953423 58.667950,43.950089 57.855740,41.411831 
z"/>
<path fill="#171717" opacity="1.000000" stroke="none" 
	d="
M57.646133,81.146255 
	C58.281994,81.041130 58.536831,81.044456 59.173927,81.035934 
	C59.620163,82.129158 59.359238,83.086517 57.955273,83.758957 
	C57.586086,84.341766 57.397690,84.768379 56.609634,85.167465 
	C56.069759,85.076385 55.893410,84.901291 55.836365,84.373039 
	C56.596939,83.195137 54.814625,81.222710 57.646133,81.146255 
z"/>
<path fill="#2C1607" opacity="1.000000" stroke="none" 
	d="
M17.125679,49.408249 
	C18.441689,49.215485 19.457230,48.806316 20.702593,48.003036 
	C21.158541,48.031384 21.303831,48.187313 21.506159,48.658104 
	C21.508036,49.179138 21.452879,49.385307 21.167547,49.813969 
	C20.433743,50.332748 19.930113,50.629036 19.163481,51.050583 
	C18.037180,50.996670 16.858564,51.235912 17.125679,49.408249 
z"/>
<path fill="#F2F2F2" opacity="1.000000" stroke="none" 
	d="
M66.683868,43.855103 
	C66.879608,44.541557 66.785690,45.099842 66.507904,45.871094 
	C65.115402,45.553925 63.485611,44.889481 63.839035,43.521049 
	C64.113068,42.460014 65.524529,43.319027 66.683868,43.855103 
z"/>
<path fill="#555555" opacity="1.000000" stroke="none" 
	d="
M76.283363,81.149834 
	C75.800758,81.475739 75.523605,81.454025 74.892319,81.212051 
	C74.162460,80.177109 73.786728,79.362434 73.651520,78.295166 
	C74.033531,77.695694 74.246628,77.399078 74.760681,77.005203 
	C78.188538,77.158745 75.572479,79.648407 76.283363,81.149834 
z"/>
<path fill="#F7F7F7" opacity="1.000000" stroke="none" 
	d="
M54.502560,81.988068 
	C54.894238,82.389549 54.985455,82.797630 55.088001,83.519302 
	C55.217869,84.047508 55.336414,84.262138 55.307034,84.812904 
	C54.931255,85.237335 54.703396,85.325623 54.183186,85.192810 
	C53.890835,84.971703 53.507172,84.996933 53.314953,84.993729 
	C52.674950,84.637421 52.490738,84.178429 52.784775,83.283218 
	C52.999931,82.952705 53.000999,82.475800 52.999935,82.238510 
	C53.399948,81.999031 53.801025,81.996841 54.502560,81.988068 
z"/>
<path fill="#F2F2F2" opacity="1.000000" stroke="none" 
	d="
M56.670258,51.478996 
	C56.894363,51.913406 56.914474,52.129616 56.966888,52.669930 
	C56.304897,53.605953 55.520618,53.739864 54.325356,53.172600 
	C54.081242,52.477150 54.165627,52.044659 54.174637,51.286110 
	C54.888264,51.060295 55.677265,51.160545 56.670258,51.478996 
z"/>
<path fill="#E8E8E8" opacity="1.000000" stroke="none" 
	d="
M54.762184,85.468124 
	C54.969414,84.910339 54.978889,84.693817 55.043846,84.155090 
	C55.099327,83.832886 55.531746,83.906921 55.743706,83.963402 
	C55.955669,84.019882 56.079273,84.443130 56.135895,84.656197 
	C56.492023,85.176163 56.792374,85.482224 57.063782,86.108643 
	C56.966827,86.836937 56.899780,87.243919 56.694328,87.808914 
	C56.290085,88.140587 56.024254,88.314232 55.348019,88.246178 
	C54.937618,88.004471 55.000584,87.999863 54.995247,88.030975 
	C54.447811,87.386780 54.517502,86.595932 54.762184,85.468124 
z"/>
<path fill="#F2F2F2" opacity="1.000000" stroke="none" 
	d="
M55.155586,43.696945 
	C54.292263,43.966862 53.687126,43.889511 53.470661,43.183041 
	C53.406319,42.973053 53.612049,42.480442 53.783710,42.431431 
	C54.691830,42.172153 55.218552,42.602192 55.155586,43.696945 
z"/>
<path fill="#F7F7F7" opacity="1.000000" stroke="none" 
	d="
M53.000591,81.999451 
	C52.023201,81.867043 51.066570,81.681976 51.142097,80.380852 
	C51.156208,80.137718 51.459133,79.697769 51.597607,79.709717 
	C52.574677,79.794052 52.781956,80.580467 52.975235,81.685043 
	C52.998871,82.001221 53.000000,82.000000 53.000591,81.999451 
z"/>
<path fill="#403030" opacity="1.000000" stroke="none" 
	d="
M22.480841,34.073448 
	C23.137760,34.445915 23.547703,35.004223 23.932053,35.931042 
	C23.103539,35.820633 21.730003,35.809498 22.480841,34.073448 
z"/>
<path fill="#F2F2F2" opacity="1.000000" stroke="none" 
	d="
M56.964512,48.713890 
	C56.486134,48.763638 55.965118,48.540764 55.488274,48.246357 
	C55.438396,48.215565 55.592670,47.584915 55.749535,47.534328 
	C56.492439,47.294739 56.770832,47.809517 56.964512,48.713890 
z"/>
<path fill="#5D5D5D" opacity="1.000000" stroke="none" 
	d="
M54.700756,85.032295 
	C55.020184,85.863640 55.080425,86.600426 55.065292,87.699646 
	C53.380398,87.952133 53.298092,87.029343 53.839035,85.387054 
	C54.074417,84.960373 54.257996,84.949051 54.700756,85.032295 
z"/>
<path fill="#C0C0C0" opacity="1.000000" stroke="none" 
	d="
M75.061111,76.540535 
	C74.823318,77.203651 74.647018,77.542938 74.181374,77.962402 
	C73.892036,78.042587 73.956390,78.004684 73.969505,78.039627 
	C73.875748,77.883026 73.768875,77.691475 73.834427,77.219696 
	C74.150787,76.342690 74.294724,75.745895 74.736977,75.024063 
	C75.064400,75.338242 75.093506,75.777473 75.061111,76.540535 
z"/>
<path fill="#686868" opacity="1.000000" stroke="none" 
	d="
M57.325790,86.190414 
	C56.730995,86.137894 56.428120,85.845825 56.158882,85.211517 
	C56.502762,84.549149 56.813004,84.229027 57.346901,83.863861 
	C57.870407,84.523216 58.122654,85.228676 57.325790,86.190414 
z"/>
<path fill="#E8E8E8" opacity="1.000000" stroke="none" 
	d="
M52.751068,83.102242 
	C53.026588,83.405838 53.053246,83.858978 53.101318,84.651321 
	C52.229183,84.656021 51.917095,84.113998 52.751068,83.102242 
z"/>
<path fill="#5D5D5D" opacity="1.000000" stroke="none" 
	d="
M54.782146,88.320831 
	C55.207027,87.989113 55.476437,87.973763 56.150879,87.962669 
	C56.238941,88.522217 55.921967,89.077507 55.604992,89.632790 
	C55.278885,89.300926 54.952782,88.969055 54.782146,88.320831 
z"/>
<path fill="#F2F2F2" opacity="1.000000" stroke="none" 
	d="
M63.989246,77.220924 
	C64.110207,77.402473 64.051437,77.585732 63.992676,77.768982 
	C63.931622,77.586861 63.870567,77.404747 63.989246,77.220924 
z"/>
<path fill="#F2F2F2" opacity="1.000000" stroke="none" 
	d="
M62.398422,47.722298 
	C62.558914,47.849911 62.582012,48.071255 62.605110,48.292603 
	C62.490414,48.133743 62.375721,47.974888 62.398422,47.722298 
z"/>
<path fill="#F2F2F2" opacity="1.000000" stroke="none" 
	d="
M67.529839,76.548660 
	C67.475624,76.580437 67.584053,76.516891 67.529839,76.548660 
z"/>
<path fill="#F2F2F2" opacity="1.000000" stroke="none" 
	d="
M66.533798,74.553864 
	C66.476654,74.588669 66.590950,74.519051 66.533798,74.553864 
z"/>
<path fill="#F2F2F2" opacity="1.000000" stroke="none" 
	d="
M57.003513,48.997219 
	C57.130878,49.146576 57.254730,49.298714 57.378582,49.450848 
	C57.287312,49.399895 57.196041,49.348942 57.049622,49.152512 
	C56.994476,49.007038 57.000000,49.000000 57.003513,48.997219 
z"/>
<path fill="#383838" opacity="1.000000" stroke="none" 
	d="
M76.133812,85.657181 
	C75.763969,85.844749 75.436203,85.723442 75.057106,85.317146 
	C75.395813,85.137543 75.785851,85.242920 76.133812,85.657181 
z"/>
<path fill="#686868" opacity="1.000000" stroke="none" 
	d="
M49.743557,45.387077 
	C50.035381,45.070576 50.437168,45.044003 50.838951,45.017433 
	C50.803288,45.312519 50.767624,45.607601 50.466400,46.046741 
	C50.085064,46.019535 49.969288,45.848270 49.743557,45.387077 
z"/>
<path fill="#403030" opacity="1.000000" stroke="none" 
	d="
M27.320171,35.738968 
	C27.234200,36.232117 26.945765,36.502319 26.389030,36.895298 
	C26.144611,36.707458 26.168493,36.396843 26.388634,35.660713 
	C26.762495,35.328804 26.940104,35.422417 27.320171,35.738968 
z"/>
<path fill="#403030" opacity="1.000000" stroke="none" 
	d="
M25.183058,32.633972 
	C25.002731,32.922478 24.693863,32.905319 23.924488,32.826069 
	C23.866894,32.154125 24.342999,31.811485 25.183058,32.633972 
z"/>
<path fill="#FFA1AD" opacity="1.000000" stroke="none" 
	d="
M27.945759,82.912796 
	C27.066675,84.367157 25.387510,85.158585 25.493290,83.467102 
	C25.874311,77.374352 24.445002,71.432838 24.818132,65.296753 
	C26.767641,70.859261 27.950453,76.541451 27.945759,82.912796 
z"/>
<path fill="#BB292B" opacity="1.000000" stroke="none" 
	d="
M19.406796,58.646027 
	C19.667324,57.025600 20.026850,55.679111 20.940060,54.200378 
	C21.642853,54.169582 21.791962,54.271030 22.109468,54.584358 
	C22.351568,54.961163 22.425272,55.126087 22.578926,55.550877 
	C22.661516,56.178631 22.579741,56.527786 22.225861,57.045380 
	C20.584862,57.988560 21.408655,59.697849 20.290398,60.899380 
	C19.291475,60.496986 19.602772,59.660641 19.406796,58.646027 
z"/>
<path fill="#590000" opacity="1.000000" stroke="none" 
	d="
M26.925758,61.516846 
	C26.962212,60.649097 26.981747,60.135117 27.040787,59.236610 
	C28.295801,60.564663 29.024298,62.378674 28.517273,64.580711 
	C26.574961,64.257660 27.152111,62.854073 26.925758,61.516846 
z"/>
<path fill="#050000" opacity="1.000000" stroke="none" 
	d="
M22.822193,55.325413 
	C23.360758,55.471634 23.657307,55.967228 23.995546,56.763695 
	C24.881863,57.847645 24.677128,58.808521 24.181858,60.368580 
	C23.564613,60.519245 23.260408,60.066917 22.894627,59.319500 
	C22.352922,57.937752 22.535288,56.801079 22.822193,55.325413 
z"/>
<path fill="#FE1B1B" opacity="1.000000" stroke="none" 
	d="
M19.242004,58.701233 
	C19.524799,59.078865 19.741802,59.785645 19.986679,60.791676 
	C19.860178,61.624630 19.705803,62.158329 19.335659,62.878845 
	C19.095104,62.616207 19.070316,62.166752 18.992325,61.384705 
	C19.018152,60.378204 19.097181,59.704296 19.242004,58.701233 
z"/>
<path fill="#FF7F8C" opacity="1.000000" stroke="none" 
	d="
M18.877604,63.828457 
	C20.535040,64.818756 19.982891,66.390846 19.715778,68.198914 
	C19.293839,68.501122 19.031830,68.460388 18.627892,68.050751 
	C18.055038,66.638878 18.529209,65.626556 18.779476,64.260727 
	C18.968597,63.921196 18.860851,63.883091 18.877604,63.828457 
z"/>
<path fill="#B50202" opacity="1.000000" stroke="none" 
	d="
M23.008930,55.026707 
	C23.029081,56.058105 22.993952,57.140175 22.895935,58.623325 
	C22.575350,58.594711 22.317650,58.165012 22.042953,57.482578 
	C22.022375,56.758492 22.018791,56.287140 22.012823,55.464592 
	C22.137699,54.975616 22.264957,54.837837 22.598013,54.891888 
	C22.803808,55.083714 22.953650,55.077374 23.008930,55.026707 
z"/>
<path fill="#995D63" opacity="1.000000" stroke="none" 
	d="
M25.033798,60.859154 
	C24.865496,61.650345 24.673147,62.471333 24.480797,63.292316 
	C24.302885,62.735901 24.124975,62.179489 23.907940,61.297325 
	C23.868816,60.971577 23.923349,60.936699 23.947708,60.958015 
	C24.144463,60.821915 24.316860,60.664497 24.754253,60.736008 
	C25.019245,60.964928 25.009750,60.888947 25.033798,60.859154 
z"/>
<path fill="#FF7F8C" opacity="1.000000" stroke="none" 
	d="
M18.987617,69.751282 
	C18.627460,69.530647 18.335318,69.048637 18.025061,68.272491 
	C18.138432,67.866661 18.269917,67.754951 18.634544,67.755585 
	C18.867689,67.867920 19.218454,68.192856 19.387150,68.367355 
	C19.389109,68.857864 19.222370,69.173889 18.987617,69.751282 
z"/>
<path fill="#FE1B1B" opacity="1.000000" stroke="none" 
	d="
M14.402254,64.947083 
	C15.145283,65.705185 15.500461,66.559319 16.018547,67.731682 
	C16.075342,68.875481 16.051170,69.722359 15.843319,70.521461 
	C15.553560,71.635475 15.251540,73.016724 13.659534,72.608139 
	C12.351851,72.272522 12.631511,70.989815 12.893410,70.107918 
	C13.388905,68.439430 12.080665,66.372459 14.402254,64.947083 
z"/>
<path fill="#FF3333" opacity="1.000000" stroke="none" 
	d="
M18.905781,67.476234 
	C18.867689,67.867920 18.436514,67.917152 18.221729,67.947762 
	C18.006947,67.978371 17.548428,67.815910 17.314772,67.750916 
	C17.496607,66.496956 17.912096,65.307999 18.648094,64.020111 
	C18.960356,64.975647 18.952114,66.030098 18.905781,67.476234 
z"/>
<path fill="#555555" opacity="1.000000" stroke="none" 
	d="
M73.680527,76.996353 
	C74.001518,77.128616 73.996178,77.317764 73.986725,77.790741 
	C72.715134,78.385101 73.102470,77.677452 73.680527,76.996353 
z"/>
<path fill="#0B0B0B" opacity="1.000000" stroke="none" 
	d="
M54.033424,53.334476 
	C54.747250,52.937126 55.497646,52.964615 56.623611,52.993069 
	C57.698975,56.066414 58.398773,59.138790 59.056973,62.616768 
	C58.000767,63.463276 57.315845,62.769566 56.240292,62.217316 
	C55.737148,62.136387 55.556675,62.147903 55.168205,62.335381 
	C56.073166,59.450619 54.204102,56.693203 54.033424,53.334476 
z"/>
<path fill="#494949" opacity="1.000000" stroke="none" 
	d="
M55.951904,62.089111 
	C57.333660,60.243656 57.700748,62.223835 58.730713,62.917038 
	C59.015377,63.022366 58.996456,63.000977 58.993027,62.987137 
	C59.656189,63.808163 59.529305,64.539024 58.276367,65.101265 
	C57.852100,65.024628 57.387497,65.040100 57.164833,64.973442 
	C56.306561,64.184929 56.641659,63.241962 56.147186,62.209679 
	C55.915211,61.984245 55.986183,62.053360 55.951904,62.089111 
z"/>
<path fill="#0B0B0B" opacity="1.000000" stroke="none" 
	d="
M57.912186,65.375496 
	C58.199932,64.547516 58.547764,64.070404 58.942596,63.283291 
	C60.360725,63.797882 59.934616,65.180801 60.018845,66.779099 
	C59.095985,66.990105 57.982208,67.131294 57.912186,65.375496 
z"/>
<path fill="#494949" opacity="1.000000" stroke="none" 
	d="
M55.016609,65.620300 
	C53.594883,65.885925 54.251385,64.132957 53.139847,63.369419 
	C53.526215,62.931065 53.962635,62.811268 54.723007,62.590878 
	C55.041767,63.384426 55.036575,64.278572 55.016609,65.620300 
z"/>
<path fill="#0B0B0B" opacity="1.000000" stroke="none" 
	d="
M55.870544,62.335350 
	C56.965496,62.392395 57.083546,63.267693 56.990097,64.565872 
	C55.626377,64.641121 55.928364,63.562111 55.870544,62.335350 
z"/>
<path fill="#E9D601" opacity="1.000000" stroke="none" 
	d="
M21.427309,49.234394 
	C21.144344,48.821754 21.104650,48.635113 21.039104,48.161964 
	C21.319616,47.859207 21.568136,47.730915 21.860596,47.301086 
	C23.216055,46.928028 24.469734,46.744465 25.892662,46.219414 
	C27.294380,45.395805 28.648571,45.349609 30.533430,44.806946 
	C31.664013,45.231487 32.127693,45.664619 32.733089,46.276154 
	C32.757561,47.473843 33.122238,49.251221 31.216951,48.166004 
	C29.846123,47.385212 28.724037,48.212162 27.170036,48.174572 
	C26.082130,48.419968 25.325750,48.564865 24.330608,48.873970 
	C23.761213,49.339352 23.380564,49.553974 22.624687,49.693707 
	C22.085190,49.615643 21.877884,49.538013 21.427309,49.234394 
z"/>
<path fill="#900A07" opacity="1.000000" stroke="none" 
	d="
M21.110226,49.262501 
	C21.184040,49.008400 21.587688,49.004700 21.777317,49.073818 
	C23.168840,50.072510 22.361677,51.355183 22.697403,52.785973 
	C22.859875,53.548836 22.875368,53.988548 22.847336,54.755989 
	C22.803808,55.083714 22.405525,55.056011 22.207981,55.084702 
	C22.010439,55.113392 21.956678,55.037956 21.943478,54.993561 
	C21.785376,54.792564 21.640476,54.635967 21.266462,54.255943 
	C21.037346,54.032513 20.983210,54.006382 20.975590,53.976372 
	C20.969126,52.903229 20.970280,51.860096 20.954403,50.426712 
	C20.970385,49.863174 21.003397,49.689888 21.110226,49.262501 
z"/>
<path fill="#B94E52" opacity="1.000000" stroke="none" 
	d="
M25.057119,60.626534 
	C24.844706,60.966694 24.670168,60.968464 24.233847,60.974777 
	C23.982868,59.935127 23.993671,58.890930 24.020859,57.455650 
	C27.583076,57.091286 24.640705,59.246986 25.057119,60.626534 
z"/>
<path fill="#590000" opacity="1.000000" stroke="none" 
	d="
M22.912971,52.754475 
	C21.788824,52.219849 22.054512,50.995701 21.992413,49.495556 
	C22.437902,49.070766 22.908863,48.998592 23.735832,48.982304 
	C23.721752,50.158733 23.351658,51.279278 22.912971,52.754475 
z"/>
<path fill="#C2C2C2" opacity="1.000000" stroke="none" 
	d="
M28.987318,42.265114 
	C29.431435,41.977192 29.852564,41.983929 30.586971,41.947739 
	C30.965666,42.629505 31.031080,43.354195 31.148413,44.438622 
	C31.037865,44.875912 30.875401,44.953472 30.448400,45.085281 
	C29.509497,45.550220 28.785183,45.490784 27.825695,45.077354 
	C27.958090,44.406761 28.318695,44.024628 28.790636,43.395042 
	C28.922758,42.951649 28.943544,42.755711 28.987318,42.265114 
z"/>
<path fill="#C0C0C0" opacity="1.000000" stroke="none" 
	d="
M27.322449,44.799969 
	C28.261827,44.853611 28.926172,44.918327 29.887190,45.061287 
	C29.233482,46.236961 27.952515,45.947704 26.402645,45.918831 
	C26.042459,45.200886 26.474655,44.941044 27.322449,44.799969 
z"/>
<path fill="#F2F2F2" opacity="1.000000" stroke="none" 
	d="
M43.264931,48.431236 
	C44.820648,47.954102 46.501953,47.848259 48.592888,47.849308 
	C47.375546,49.854218 45.375313,49.277180 43.264931,48.431236 
z"/>
<path fill="#551E1E" opacity="1.000000" stroke="none" 
	d="
M21.122667,54.243221 
	C21.340086,54.111687 21.580132,54.280151 21.843880,54.743538 
	C21.600758,54.913513 21.359995,54.748436 21.122667,54.243221 
z"/>
</svg>